<?xml version="1.0" encoding="UTF-8"?>
<svg version="1.1" xmlns="http://www.w3.org/2000/svg" width="500" height="500">
<path d="M0 0 C165 0 330 0 500 0 C500 165 500 330 500 500 C335 500 170 500 0 500 C0 335 0 170 0 0 Z " fill="#CCCCCC" transform="translate(0,0)"/>
<path d="M0 0 C0.66230621 -0.02949738 1.32461243 -0.05899475 2.00698853 -0.08938599 C4.200725 -0.17845918 6.393393 -0.23490244 8.58837891 -0.28369141 C9.7183322 -0.31188902 9.7183322 -0.31188902 10.87111282 -0.34065628 C14.86709708 -0.43584806 18.86255648 -0.5031586 22.859375 -0.55078125 C26.14896155 -0.59501834 29.43017622 -0.69195357 32.71679688 -0.83789062 C59.14017588 -1.98667776 59.14017588 -1.98667776 66.18258667 2.4788208 C70.42643802 6.56743548 73.09763379 11.21493904 75.44566345 16.57803345 C76.86109157 19.6553911 78.72102014 22.16070873 80.75244141 24.86474609 C81.64978852 26.15536156 82.54637422 27.44651068 83.43994141 28.73974609 C83.10994141 29.39974609 82.77994141 30.05974609 82.43994141 30.73974609 C81.85728516 30.32724609 81.27462891 29.91474609 80.67431641 29.48974609 C78.92937928 28.26060799 77.17742068 27.0414067 75.42041016 25.82958984 C73.41553619 24.42381321 71.43872677 22.97723164 69.49072266 21.49365234 C63.51548784 17.11181348 59.30634974 14.8422374 51.81494141 15.16552734 C49.08438987 15.82571003 47.60802755 16.9968665 45.43994141 18.73974609 C44.77994141 18.73974609 44.11994141 18.73974609 43.43994141 18.73974609 C43.13056641 19.52349609 42.82119141 20.30724609 42.50244141 21.11474609 C41.43994141 23.73974609 41.43994141 23.73974609 40.43994141 25.73974609 C39.83401872 32.27807458 40.99593049 38.39048992 42.43994141 44.73974609 C41.87404297 45.026492 41.30814453 45.31323792 40.72509766 45.6086731 C37.19964305 47.73807052 34.83597778 49.33646534 33.68603516 53.41107178 C33.41758676 56.74756838 33.38449678 60.00998213 33.43994141 63.35693359 C33.42906494 64.56922638 33.41818848 65.78151917 33.40698242 67.0305481 C33.38084014 70.89285307 33.40966257 74.75251173 33.43994141 78.61474609 C33.43184955 81.23715563 33.42017239 83.85955672 33.40478516 86.48193359 C33.3749415 92.90168713 33.39018965 99.32014251 33.43994141 105.73974609 C34.66168564 105.818321 34.66168564 105.818321 35.90811157 105.89848328 C37.51835709 106.01459709 37.51835709 106.01459709 39.16113281 106.13305664 C40.75412704 106.24256905 40.75412704 106.24256905 42.37930298 106.35429382 C46.71600372 106.90045149 50.03793564 108.4415664 53.81494141 110.55224609 C54.47365234 110.89578125 55.13236328 111.23931641 55.81103516 111.59326172 C61.93901076 114.83999233 67.40440793 118.42114505 72.31494141 123.36474609 C73.09611328 124.14076172 73.87728516 124.91677734 74.68212891 125.71630859 C76.43994141 127.73974609 76.43994141 127.73974609 76.43994141 129.73974609 C83.34198349 123.86746034 89.99940924 117.73161659 96.52416992 111.44506836 C97.7600533 110.26616814 99.00824292 109.10003624 100.26831055 107.94702148 C108.09557074 101.0567579 108.09557074 101.0567579 112.32397461 91.85791016 C112.55319593 88.1203533 112.55319593 88.1203533 112.25927734 84.61743164 C112.43994141 81.73974609 112.43994141 81.73974609 114.43969727 79.84472656 C116.72765641 78.62792743 119.02829864 77.68159607 121.43994141 76.73974609 C125.50089319 73.38946087 126.13186599 71.02013936 126.81884766 65.93505859 C127.2714435 60.01928948 127.2714435 60.01928948 125.04150391 54.72802734 C119.87737842 50.5440318 113.83333359 49.06578299 107.43994141 47.73974609 C106.79379883 47.60439453 106.14765625 47.46904297 105.48193359 47.32958984 C101.14223008 46.42540009 96.79478312 45.56840018 92.43994141 44.73974609 C95.15897852 42.02070898 97.14932969 42.20121187 100.93994141 41.73974609 C105.99377645 41.08930359 110.91233597 40.29721136 115.86572266 39.10693359 C116.71521484 38.98576172 117.56470703 38.86458984 118.43994141 38.73974609 C119.10356689 38.63428467 119.76719238 38.52882324 120.45092773 38.42016602 C124.0431569 38.09254979 126.4701011 38.09612377 129.53540039 40.13037109 C131.64884001 42.0971765 133.58226913 44.14656307 135.50244141 46.30224609 C136.82406495 47.72263403 138.14827795 49.14061706 139.47509766 50.55615234 C140.12430176 51.25691895 140.77350586 51.95768555 141.44238281 52.6796875 C144.0405129 55.35910838 146.82108499 57.773346 149.65649414 60.1965332 C151.86421671 62.10687056 153.90763232 64.14490442 155.93994141 66.23974609 C159.35747502 69.70433697 162.89625584 72.93496414 166.58056641 76.11083984 C174.08979304 82.68930099 174.08979304 82.68930099 175.43994141 86.73974609 C175.75856979 92.5812665 174.98376147 97.89320517 173.94384766 103.63818359 C173.31550857 107.50563502 173.0195175 111.35827231 172.78369141 115.26708984 C172.4036252 118.00097517 171.55580702 120.22454901 170.43994141 122.73974609 C166.60635853 118.90616322 166.51468607 112.76267875 166.01025391 107.54052734 C165.89810547 106.41916382 165.89810547 106.41916382 165.78369141 105.27514648 C165.64005311 103.77447897 165.51193802 102.27222852 165.40087891 100.76879883 C164.94103422 95.92771755 163.97988215 93.11385178 160.43994141 89.73974609 C155.14752382 87.15355441 148.33671775 86.93134339 142.75244141 88.48974609 C136.7367178 91.74148859 134.91727435 96.68195741 132.43994141 102.73974609 C131.56595703 102.54541992 130.69197266 102.35109375 129.79150391 102.15087891 C124.4244151 101.49124456 119.96798152 101.1837082 115.22070312 104.10571289 C110.3085307 107.98979385 105.99834035 112.47976165 101.72705078 117.04638672 C99.42513945 119.50555929 97.07260038 121.90584445 94.70556641 124.30224609 C93.21799957 125.83561437 91.73350597 127.37197142 90.25244141 128.91162109 C89.19972046 129.99621613 89.19972046 129.99621613 88.12573242 131.10272217 C87.4933667 131.78312561 86.86100098 132.46352905 86.20947266 133.16455078 C85.64848877 133.75967468 85.08750488 134.35479858 84.50952148 134.96795654 C83.21794568 136.69088016 83.21794568 136.69088016 83.70825195 138.77642822 C83.94970947 139.42432312 84.19116699 140.07221802 84.43994141 140.73974609 C84.74931641 141.72587891 85.05869141 142.71201172 85.37744141 143.72802734 C85.72806641 144.82501953 86.07869141 145.92201172 86.43994141 147.05224609 C91.73103412 164.30580928 89.77965096 180.72396434 81.43994141 196.73974609 C79.66030148 199.18166366 77.820695 201.46338977 75.79541016 203.70458984 C74.10266439 206.24614761 74.15082445 207.7407702 74.43994141 210.73974609 C74.73039055 212.08307338 75.04949934 213.42200413 75.43994141 214.73974609 C76.09994141 214.73974609 76.75994141 214.73974609 77.43994141 214.73974609 C78.38954125 216.40154582 79.33845745 218.06374042 80.28369141 219.72802734 C81.04106337 221.04575221 81.81149642 222.35607553 82.59619141 223.65771484 C85.43994141 228.42099609 85.43994141 228.42099609 85.43994141 231.73974609 C86.09994141 231.73974609 86.75994141 231.73974609 87.43994141 231.73974609 C88.11589456 233.15200536 88.780342 234.56977514 89.43994141 235.98974609 C89.81119141 236.77865234 90.18244141 237.56755859 90.56494141 238.38037109 C91.43994141 240.73974609 91.43994141 240.73974609 91.43994141 244.73974609 C90.44994141 244.73974609 89.45994141 244.73974609 88.43994141 244.73974609 C88.43994141 244.07974609 88.43994141 243.41974609 88.43994141 242.73974609 C87.69744141 242.61599609 86.95494141 242.49224609 86.18994141 242.36474609 C83.63852656 241.78487908 81.7131841 241.0026587 79.43994141 239.73974609 C79.43994141 239.07974609 79.43994141 238.41974609 79.43994141 237.73974609 C78.59431641 237.67787109 77.74869141 237.61599609 76.87744141 237.55224609 C73.12604776 236.66555305 71.22624596 235.36531654 68.22900391 233.06787109 C66.49886469 231.78348827 64.75979312 230.72207568 62.87744141 229.67724609 C59.61578657 227.83885882 56.54227172 225.83201537 53.43994141 223.73974609 C49.94511247 221.99233163 45.82124274 224.19170159 42.20166016 225.26904297 C38.1638818 226.42097377 34.63530463 226.95472589 30.43994141 226.73974609 C30.10994141 229.70974609 29.77994141 232.67974609 29.43994141 235.73974609 C28.77994141 235.73974609 28.11994141 235.73974609 27.43994141 235.73974609 C27.10994141 232.76974609 26.77994141 229.79974609 26.43994141 226.73974609 C25.65232422 226.72556641 24.86470703 226.71138672 24.05322266 226.69677734 C16.40235782 226.36176906 10.26183185 224.89145229 3.21728516 221.89599609 C-0.08393723 220.46540974 -0.08393723 220.46540974 -3.56005859 219.73974609 C-5.32678895 220.68956945 -5.32678895 220.68956945 -6.81005859 222.17724609 C-7.71755859 223.02287109 -8.62505859 223.86849609 -9.56005859 224.73974609 C-10.22005859 224.40974609 -10.88005859 224.07974609 -11.56005859 223.73974609 C-10.29052734 222.24235026 -9.02099609 220.74495443 -7.75146484 219.24755859 C-6.47224339 217.7338053 -6.47224339 217.7338053 -5.56005859 215.73974609 C-6.29482422 215.49095703 -7.02958984 215.24216797 -7.78662109 214.98583984 C-18.65950172 210.10070052 -25.56649176 197.02202917 -29.73583984 186.41943359 C-31.92938557 179.28781099 -32.88264073 172.63506111 -32.81005859 165.17724609 C-32.82166016 163.97938477 -32.82166016 163.97938477 -32.83349609 162.75732422 C-32.8205856 158.79702975 -32.54694022 155.28584786 -31.48193359 151.46240234 C-30.55984679 147.73889079 -30.45688555 146.30289512 -31.56005859 142.73974609 C-33.06444288 140.70114729 -33.06444288 140.70114729 -35.06665039 138.87426758 C-35.80799728 138.15258896 -36.54934418 137.43091034 -37.31315613 136.68736267 C-38.52398613 135.53573387 -38.52398613 135.53573387 -39.75927734 134.36083984 C-41.46070407 132.70029364 -43.16186742 131.03947753 -44.86279297 129.37841797 C-47.54570276 126.78207732 -50.23333746 124.1908945 -52.92700195 121.60571289 C-55.53026577 119.0999424 -58.11407748 116.57527675 -60.69677734 114.04833984 C-61.49387619 113.29475693 -62.29097504 112.54117401 -63.11222839 111.76475525 C-68.18022781 106.78621273 -71.31682624 101.9421149 -74.16853333 95.42811584 C-76.03795383 91.81647209 -78.22309274 89.50372658 -81.74755859 87.48974609 C-87.13302734 86.05362109 -92.34076029 85.78747596 -97.43505859 88.30224609 C-103.94263343 93.37815447 -104.4564758 101.45586769 -105.74755859 109.17724609 C-105.92480469 110.19496094 -106.10205078 111.21267578 -106.28466797 112.26123047 C-106.71748484 114.75285192 -107.14239136 117.24554839 -107.56005859 119.73974609 C-108.22005859 119.73974609 -108.88005859 119.73974609 -109.56005859 119.73974609 C-110.40586247 115.57551168 -111.23443596 111.40802468 -112.06005859 107.23974609 C-112.29853516 106.06669922 -112.53701172 104.89365234 -112.78271484 103.68505859 C-113.12109375 101.96416016 -113.12109375 101.96416016 -113.46630859 100.20849609 C-113.67578125 99.16113281 -113.88525391 98.11376953 -114.10107422 97.03466797 C-114.25253906 95.94734375 -114.40400391 94.86001953 -114.56005859 93.73974609 C-114.78975342 92.519729 -115.01944824 91.29971191 -115.25610352 90.04272461 C-115.1203639 83.42283086 -108.90509508 78.81044926 -104.51708984 74.42333984 C-103.47132736 73.35692535 -102.42631032 72.28977938 -101.38200378 71.22193909 C-99.19053327 68.9916677 -96.98375994 66.77796323 -94.76635742 64.57348633 C-91.93930473 61.75841397 -89.16572371 58.89646645 -86.40303516 56.01838589 C-84.25915703 53.80021741 -82.08366443 51.61523152 -79.89819908 49.438097 C-78.86205535 48.39624089 -77.83697056 47.3432547 -76.82395363 46.27889824 C-68.94074114 38.03913306 -68.94074114 38.03913306 -63.14749146 37.31059265 C-59.8437152 37.54092839 -56.79178452 38.03071276 -53.56005859 38.73974609 C-51.54553111 39.04779238 -49.53003472 39.34964321 -47.51318359 39.64208984 C-45.6109128 39.98030011 -43.70983425 40.32529041 -41.81005859 40.67724609 C-40.33666016 40.93151367 -40.33666016 40.93151367 -38.83349609 41.19091797 C-37.90279297 41.36042969 -36.97208984 41.52994141 -36.01318359 41.70458984 C-35.17948242 41.85532959 -34.34578125 42.00606934 -33.48681641 42.16137695 C-32.85098633 42.35223877 -32.21515625 42.54310059 -31.56005859 42.73974609 C-31.23005859 43.39974609 -30.90005859 44.05974609 -30.56005859 44.73974609 C-32.78840347 45.20205831 -35.01779528 45.65932426 -37.24755859 46.11474609 C-38.25955322 46.32272827 -38.25955322 46.32272827 -39.29199219 46.53491211 C-44.75201595 47.63420713 -50.21800852 48.40417567 -55.75537109 49.01708984 C-59.92582869 50.09165065 -62.66197981 52.24294812 -64.87255859 55.92724609 C-66.20141658 61.3634833 -66.55948368 66.49386485 -63.87255859 71.55224609 C-60.44808397 76.27246788 -57.12967423 78.49580368 -51.89746094 80.859375 C-46.33768224 83.62297679 -42.51295634 87.21629744 -38.28662109 91.70068359 C-37.55559174 92.45064606 -36.82456238 93.20060852 -36.07138062 93.97329712 C-33.76329221 96.34191421 -31.47237316 98.72607342 -29.18505859 101.11474609 C-26.14984587 104.2826112 -23.09863266 107.43374059 -20.03662109 110.57568359 C-18.99908188 111.67546036 -18.99908188 111.67546036 -17.94058228 112.79745483 C-17.29245575 113.46209747 -16.64432922 114.12674011 -15.9765625 114.81152344 C-15.41160065 115.40266937 -14.84663879 115.99381531 -14.26455688 116.60287476 C-12.6088426 117.97256563 -12.6088426 117.97256563 -10.47909546 117.49990845 C-8.15058589 116.57754716 -6.2188361 115.36134082 -4.12255859 113.98974609 C3.96954996 109.02195756 12.04963823 106.08121798 21.43994141 104.73974609 C21.76994141 86.91974609 22.09994141 69.09974609 22.43994141 50.73974609 C21.44994141 50.40974609 20.45994141 50.07974609 19.43994141 49.73974609 C16.62744141 47.80224609 16.62744141 47.80224609 14.43994141 44.73974609 C14.58414002 42.15768964 15.15979388 39.86388938 15.80322266 37.36083984 C17.12338375 31.92631166 17.36810588 26.91604955 14.75244141 21.86474609 C11.79697207 17.87086861 10.0419312 16.34823934 5.20166016 15.21630859 C-3.97486032 14.21029005 -9.89151181 19.34335527 -16.88623047 24.52148438 C-19.02555171 26.07854578 -21.24101222 27.48441188 -23.49755859 28.86474609 C-24.50818359 29.48349609 -25.51880859 30.10224609 -26.56005859 30.73974609 C-25.04209022 27.50191439 -23.20706404 24.62688012 -21.18896484 21.67724609 C-20.5321875 20.71560547 -19.87541016 19.75396484 -19.19873047 18.76318359 C-18.17102539 17.26658203 -18.17102539 17.26658203 -17.12255859 15.73974609 C-16.44128906 14.74201172 -15.76001953 13.74427734 -15.05810547 12.71630859 C-11.38785203 7.35292159 -11.38785203 7.35292159 -9.56005859 4.73974609 C-8.96835625 3.69806778 -8.96835625 3.69806778 -8.36470032 2.63534546 C-5.73950018 -0.12217015 -3.75644934 0.14242447 0 0 Z " fill="#3B3B3C" transform="translate(219.56005859375,143.26025390625)"/>
<path d="M0 0 C1.06992187 0.00451172 2.13984375 0.00902344 3.2421875 0.01367188 C5.86984986 0.02540251 8.49739538 0.04181772 11.125 0.0625 C11.4770297 12.66787113 6.34440876 26.09222517 -2.22265625 35.53515625 C-15.23249414 47.56079837 -29.80231664 53.70796173 -47.51171875 53.375 C-62.07670314 52.02169135 -74.97430973 44.57219582 -84.875 34.0625 C-92.22749071 24.76515691 -96.875 15.02009692 -96.875 3.0625 C-87.305 3.0625 -77.735 3.0625 -67.875 3.0625 C-66.555 6.0325 -65.235 9.0025 -63.875 12.0625 C-60.50947717 17.284863 -56.32503512 19.33748244 -50.875 22.0625 C-38.64289914 23.04555625 -38.64289914 23.04555625 -27.875 18.0625 C-22.40072812 13.1434281 -19.60613017 8.18486411 -17.875 1.0625 C-11.93872979 -0.24183619 -6.04167748 -0.04836318 0 0 Z " fill="#FCFCFC" transform="translate(290.875,310.9375)"/>
<path d="M0 0 C10.91934233 8.89778841 19.07776786 20.46660714 21.4375 34.625 C21.4375 35.945 21.4375 37.265 21.4375 38.625 C11.5375 38.625 1.6375 38.625 -8.5625 38.625 C-9.2225 36.315 -9.8825 34.005 -10.5625 31.625 C-14.11620851 25.98708947 -19.03188815 21.33847737 -25.5625 19.625 C-34.5163663 18.64882661 -41.71974652 19.43318521 -49.3125 24.4375 C-54.72967273 29.70419571 -56.09280063 34.21590189 -58.5625 41.625 C-67.8025 41.625 -77.0425 41.625 -86.5625 41.625 C-86.5625 30.45844221 -84.49784396 22.9689272 -78.5625 13.625 C-78.13195312 12.94566406 -77.70140625 12.26632812 -77.2578125 11.56640625 C-69.54736646 0.39279377 -57.13980641 -7.27753233 -43.9206543 -9.98681641 C-27.68911279 -12.65874424 -13.33303861 -9.54486759 0 0 Z " fill="#E91B24" transform="translate(280.5625,265.375)"/>
<path d="M0 0 C5.23769432 1.14973778 8.56883569 5.08921057 12 9 C13.85117163 12.70234325 13.45779276 16.95834392 13 21 C11.4375 23.5 11.4375 23.5 9 25 C7.845 25.2475 6.69 25.495 5.5 25.75 C1.98821525 26.5934114 1.98821525 26.5934114 0.87109375 28.828125 C0.24923557 30.2747909 -0.36667059 31.72403 -0.9765625 33.17578125 C-2 35 -2 35 -4.9375 36.1875 C-5.948125 36.455625 -6.95875 36.72375 -8 37 C-11.361998 39.73651 -12.85318756 41.62339417 -14.4375 45.6875 C-16 49 -16 49 -18.875 50.125 C-20.421875 50.558125 -20.421875 50.558125 -22 51 C-25.03828671 53.54368189 -26.77770537 55.51675079 -28.4375 59.125 C-30.40371176 62.74282964 -32.26316159 63.442984 -36 65 C-37.485 65.99 -37.485 65.99 -39 67 C-41.37432028 64.77048251 -43.72050145 62.513408 -46.0625 60.25 C-46.73861328 59.61578125 -47.41472656 58.9815625 -48.11132812 58.328125 C-48.74619141 57.709375 -49.38105469 57.090625 -50.03515625 56.453125 C-50.92279663 55.60476074 -50.92279663 55.60476074 -51.82836914 54.73925781 C-53 53 -53 53 -52.77514648 50.97949219 C-51.30678937 47.22974746 -49.86616485 43.86616485 -47 41 C-46.236875 40.731875 -45.47375 40.46375 -44.6875 40.1875 C-40.41363566 38.29904832 -37.70095168 35.58636434 -35.8125 31.3125 C-35.544375 30.549375 -35.27625 29.78625 -35 29 C-33 27 -33 27 -30.6875 26.1875 C-26.41363566 24.29904832 -23.70095168 21.58636434 -21.8125 17.3125 C-21.544375 16.549375 -21.27625 15.78625 -21 15 C-19 13 -19 13 -16.5 12.3125 C-13.61918084 11.17475984 -13.61918084 11.17475984 -12.9375 7.625 C-12.628125 6.42875 -12.31875 5.2325 -12 4 C-8.88160436 -0.67759345 -5.23494519 -0.6622521 0 0 Z " fill="#3F3F40" transform="translate(419,145)"/>
<path d="M0 0 C2.4425834 1.71081771 4.4160696 3.25010794 5.765625 5.94921875 C6.02422635 10.00063994 6.07004054 11.49259544 3.765625 14.94921875 C3.54993065 18.18463397 3.77477468 21.00208355 4.328125 24.19921875 C4.765625 26.94921875 4.765625 26.94921875 3.765625 28.94921875 C3.45486309 35.05477637 3.65765229 40.93450974 4.765625 46.94921875 C4.435625 47.60921875 4.105625 48.26921875 3.765625 48.94921875 C3.48714788 54.3467605 3.47066736 59.79152826 4.328125 65.13671875 C4.4725 66.06484375 4.616875 66.99296875 4.765625 67.94921875 C4.435625 68.27921875 4.105625 68.60921875 3.765625 68.94921875 C3.435625 71.25921875 3.105625 73.56921875 2.765625 75.94921875 C-4.494375 75.94921875 -11.754375 75.94921875 -19.234375 75.94921875 C-19.564375 73.63921875 -19.894375 71.32921875 -20.234375 68.94921875 C-20.564375 68.61921875 -20.894375 68.28921875 -21.234375 67.94921875 C-20.99045639 66.38117052 -20.74542061 64.81329114 -20.49609375 63.24609375 C-19.72118064 56.44536375 -19.99701593 49.66631086 -21.234375 42.94921875 C-20.904375 42.28921875 -20.574375 41.62921875 -20.234375 40.94921875 C-19.92361309 34.84366113 -20.12640229 28.96392776 -21.234375 22.94921875 C-20.904375 22.28921875 -20.574375 21.62921875 -20.234375 20.94921875 C-19.97577365 16.89779756 -19.92995946 15.40584206 -22.234375 11.94921875 C-22.72492078 8.18836774 -22.54703971 6.45874642 -20.546875 3.19921875 C-15.31873279 -1.88762232 -6.64270987 -3.12393174 0 0 Z " fill="#3E3E40" transform="translate(256.234375,67.05078125)"/>
<path d="M0 0 C3.11227285 2.07484857 3.83662646 3.39677463 4.8125 7 C6.25797933 10.65173725 7.9285329 11.2486086 11.34375 12.94921875 C13.94982648 14.60260218 14.66150061 17.26946125 16 20 C19.05132581 23.14996781 22.23758655 26.14842678 26.20703125 28.06640625 C28 29 28 29 28.75 31.1875 C30.88060918 35.98137066 35.42829906 39.7724912 40.15234375 42.02734375 C43.09025635 43.57394045 43.74996737 46.02373184 45 49 C45.35221043 50.32847157 45.68990196 51.66107203 46 53 C45.48050781 53.43570313 44.96101563 53.87140625 44.42578125 54.3203125 C40.16777334 57.95654106 36.44527348 61.58574336 33 66 C28.38008529 65.04701311 24.68256887 62.91810703 21 60 C19.875 57.5625 19.875 57.5625 19 55 C16.48689746 51.8566767 14.11274537 49.41404479 10.3125 48 C6.95976797 46.55016993 6.55805106 44.24074621 5 41 C2.511243 37.92351905 0.22301334 35.41761431 -3.5625 34.125 C-6.4786435 32.77908761 -6.8916377 31.74710561 -8.4375 29 C-10.43664655 25.49903731 -10.43664655 25.49903731 -14.125 23.6875 C-15.07375 23.460625 -16.0225 23.23375 -17 23 C-18.99962512 21.4420973 -19.87441161 20.49359158 -20.50390625 18.01953125 C-20.65627348 12.28036566 -19.3718067 9.02912084 -15.6328125 4.6640625 C-10.988025 -0.06962046 -6.47766433 -1.07961072 0 0 Z " fill="#3F3F40" transform="translate(89,145)"/>
<path d="M0 0 C4.62453365 3.33396612 8.68353112 7.15376622 9.6875 12.9375 C10.614529 19.73180112 9.74862929 24.49079283 5.58984375 30.01953125 C1.46581795 34.17742995 -3.58340684 36.04486498 -9.375 36.5 C-15.51217276 35.62326103 -19.46262899 32.88473265 -23.6875 28.4375 C-26.87973988 23.52636172 -27.82101124 19.8362304 -27.3125 13.9375 C-25.29523917 8.0874436 -22.84271971 3.7271676 -17.75 0.125 C-11.82307042 -1.92248476 -5.96877817 -1.91451375 0 0 Z " fill="#FBFBFB" transform="translate(256.3125,292.0625)"/>
<path d="M0 0 C0.66 0.33 1.32 0.66 2 1 C0.51657 4.44677 -1.43050188 6.67343301 -4.08251953 9.30957031 C-4.92324005 10.15013977 -5.76396057 10.99070923 -6.63015747 11.85675049 C-7.53853363 12.75480408 -8.44690979 13.65285767 -9.3828125 14.578125 C-10.31221649 15.5046991 -11.24162048 16.43127319 -12.19918823 17.38592529 C-14.6640385 19.84315789 -17.13483666 22.29432361 -19.60693359 24.7442627 C-22.13090765 27.24773809 -24.64919388 29.75692063 -27.16796875 32.265625 C-32.10643597 37.18267525 -37.051212 42.09333788 -42 47 C-47.14789256 39.27816116 -47.14789256 39.27816116 -46.77229309 36.03204346 C-45.85811219 33.62666739 -44.72717714 32.28866405 -42.95581055 30.42480469 C-42.31391281 29.74440125 -41.67201508 29.0639978 -41.01066589 28.36297607 C-40.30976334 27.63991272 -39.60886078 26.91684937 -38.88671875 26.171875 C-38.16192825 25.42286926 -37.43713776 24.67386353 -36.69038391 23.90216064 C-35.15063178 22.32092124 -33.60615948 20.74426657 -32.05737305 19.171875 C-29.70735598 16.77029167 -27.40052938 14.33182778 -25.09179688 11.890625 C-23.58846033 10.35689808 -22.08267472 8.82556712 -20.57421875 7.296875 C-19.89558273 6.56571472 -19.21694672 5.83455444 -18.51774597 5.08123779 C-12.81649418 -0.54605553 -7.83971419 -1.10236705 0 0 Z " fill="#F7F7F7" transform="translate(349,245)"/>
<path d="M0 0 C3.44709738 0.58592628 5.11834909 1.7332322 7.59106445 4.17114258 C8.27469559 4.83886185 8.95832672 5.50658112 9.66267395 6.1945343 C10.38887436 6.92053329 11.11507477 7.64653229 11.86328125 8.39453125 C12.61465866 9.13829514 13.36603607 9.88205902 14.1401825 10.64836121 C15.72500721 12.22238384 17.30587455 13.80039956 18.88305664 15.38208008 C21.30677887 17.80677657 23.75103675 20.20936599 26.19726562 22.61132812 C27.73306969 24.14192699 29.26761893 25.67378621 30.80078125 27.20703125 C31.53710281 27.92695755 32.27342438 28.64688385 33.03205872 29.3886261 C33.69992905 30.06580185 34.36779938 30.7429776 35.0559082 31.44067383 C35.65007034 32.03278152 36.24423248 32.62488922 36.85639954 33.23493958 C38 35 38 35 37.84416199 37.05058289 C36.56035239 40.01527501 34.34514722 41.83524872 32 44 C29.22569603 42.72392992 27.10275223 41.37841751 24.88378906 39.28540039 C24.30348938 38.74045425 23.7231897 38.19550812 23.12530518 37.63404846 C20.50912976 35.12097366 17.90005981 32.60130451 15.30810547 30.06323242 C13.94035519 28.73361041 12.56109055 27.41572742 11.17041016 26.11010742 C-0.36913323 15.27038681 -0.36913323 15.27038681 -1.92382812 9.67529297 C-1.95938595 6.04424674 -1.62606807 3.25213613 0 0 Z " fill="#080808" transform="translate(169,226)"/>
<path d="M0 0 C1.9375 0.75 1.9375 0.75 4 2 C4.75 4.125 4.75 4.125 5 6 C5.66 6 6.32 6 7 6 C7.94959985 7.66179973 8.89851604 9.32399432 9.84375 10.98828125 C10.60112196 12.30600612 11.37155502 13.61632944 12.15625 14.91796875 C15 19.68125 15 19.68125 15 23 C15.66 23 16.32 23 17 23 C17.67595315 24.41225926 18.34040059 25.83002905 19 27.25 C19.37125 28.03890625 19.7425 28.8278125 20.125 29.640625 C21 32 21 32 21 36 C20.01 36 19.02 36 18 36 C18 35.34 18 34.68 18 34 C16.88625 33.814375 16.88625 33.814375 15.75 33.625 C13.19858515 33.04513299 11.2732427 32.26291261 9 31 C9 30.34 9 29.68 9 29 C7.7315625 28.9071875 7.7315625 28.9071875 6.4375 28.8125 C2.68610636 27.92580696 0.78630455 26.62557045 -2.2109375 24.328125 C-3.94107672 23.04374218 -5.68014829 21.98232958 -7.5625 20.9375 C-10.87328232 19.07142269 -13.97064617 17.29048704 -17 15 C-17 14.01 -17 13.02 -17 12 C-11.70769231 8.92307692 -11.70769231 8.92307692 -8.125 9.3125 C-7.42375 9.539375 -6.7225 9.76625 -6 10 C-6 10.66 -6 11.32 -6 12 C-5.401875 12.12375 -4.80375 12.2475 -4.1875 12.375 C-2 13 -2 13 1 15 C-0.98 12.36 -2.96 9.72 -5 7 C-3.38262276 3.76524552 -2.52370777 2.29427979 0 0 Z " fill="#060606" transform="translate(290,352)"/>
<path d="M0 0 C8.15613048 5.64431534 15.02838318 13.91740566 22 20.9375 C23.2640885 22.20661373 24.52840956 23.47549589 25.79296875 24.74414062 C28.86466724 27.8267632 31.93320008 30.91250428 35 34 C33.125 39.75 33.125 39.75 32 42 C27.89444145 41.48303279 25.947989 40.44894914 23.03588867 37.53759766 C22.2954985 36.80658844 21.55510834 36.07557922 20.7922821 35.32241821 C20.0087587 34.52766083 19.22523529 33.73290344 18.41796875 32.9140625 C17.60378983 32.10133881 16.7896109 31.28861511 15.95075989 30.45126343 C14.23390086 28.73274554 12.52198843 27.00927359 10.81469727 25.28125 C8.1922784 22.62983124 5.55165941 19.99761456 2.90820312 17.3671875 C1.24367532 15.69642394 -0.41977394 14.02458501 -2.08203125 12.3515625 C-2.87567581 11.56085358 -3.66932037 10.77014465 -4.48701477 9.95547485 C-5.21164413 9.21816132 -5.9362735 8.48084778 -6.68286133 7.72119141 C-7.32508133 7.07356842 -7.96730133 6.42594543 -8.62898254 5.75869751 C-10 4 -10 4 -10 1 C-6.50648943 -0.07492633 -3.63435533 -0.55913159 0 0 Z " fill="#060606" transform="translate(160,244)"/>
<path d="M0 0 C1.30769994 3.92309981 1.86417706 7.94673446 1 12 C-1.04243837 15.1621532 -3.65043783 17.63100189 -6.3671875 20.21875 C-7.49207077 21.33376892 -7.49207077 21.33376892 -8.63967896 22.47131348 C-10.22273198 24.03357014 -11.81526087 25.58627551 -13.41650391 27.12988281 C-15.87703958 29.50196627 -18.30958825 31.90005069 -20.73828125 34.3046875 C-22.27970857 35.81927867 -23.82262683 37.3323543 -25.3671875 38.84375 C-26.10057343 39.56236206 -26.83395935 40.28097412 -27.58956909 41.0213623 C-28.2701236 41.67624634 -28.9506781 42.33113037 -29.65185547 43.00585938 C-30.25142059 43.58573608 -30.85098572 44.16561279 -31.46871948 44.76306152 C-33 46 -33 46 -35 46 C-36.7143618 44.04072937 -38.38405168 42.04119788 -40 40 C-38.59779351 36.83199926 -36.94085834 34.68824332 -34.5 32.24121094 C-33.78585937 31.52076599 -33.07171875 30.80032104 -32.3359375 30.05804443 C-31.56507813 29.29123352 -30.79421875 28.52442261 -30 27.734375 C-29.20851563 26.94097717 -28.41703125 26.14757935 -27.6015625 25.33013916 C-25.92954263 23.65675946 -24.25499903 21.98589819 -22.578125 20.31738281 C-20.00287602 17.75286403 -17.43848948 15.17783011 -14.875 12.6015625 C-13.25064116 10.97852473 -11.62566231 9.35610719 -10 7.734375 C-9.22914063 6.95946716 -8.45828125 6.18455933 -7.6640625 5.38616943 C-6.94992187 4.67833313 -6.23578125 3.97049683 -5.5 3.24121094 C-4.8709375 2.61373962 -4.241875 1.98626831 -3.59375 1.33978271 C-2 0 -2 0 0 0 Z " fill="#F6F6F6" transform="translate(331,227)"/>
<path d="M0 0 C0 20.46 0 40.92 0 62 C-2.97 61.67 -5.94 61.34 -9 61 C-9.20302745 53.27747575 -9.34301635 45.55564044 -9.43945312 37.83105469 C-9.4796573 35.20416548 -9.5342309 32.57745497 -9.60351562 29.95117188 C-9.70069192 26.1727288 -9.74595988 22.39665311 -9.78125 18.6171875 C-9.82254028 17.44509735 -9.86383057 16.2730072 -9.90637207 15.06539917 C-9.91076117 7.0702896 -9.91076117 7.0702896 -7.20092773 3.88580322 C-2.12486444 0 -2.12486444 0 0 0 Z " fill="#939393" transform="translate(262,188)"/>
<path d="M0 0 C2.9719385 1.12451727 5.33440687 2.22293791 8 4 C6.87548273 6.9719385 5.77706209 9.33440687 4 12 C4.9075 11.154375 5.815 10.30875 6.75 9.4375 C9.70538244 7 9.70538244 7 12 7 C12.66 7.33 13.32 7.66 14 8 C15.0725 8.515625 16.145 9.03125 17.25 9.5625 C18.61125 10.2740625 18.61125 10.2740625 20 11 C20 11.99 20 12.98 20 14 C18.33984375 14.91145833 16.6796875 15.82291667 15.01953125 16.734375 C12.87172159 18.02027615 12.87172159 18.02027615 10.62109375 19.95703125 C7.92726835 22.0566895 5.32725294 23.46807102 2.25 24.9375 C-2.316502 27.14764198 -6.71728593 29.50018357 -11.0625 32.1171875 C-13 33 -13 33 -17 33 C-16.500176 27.87680404 -14.62929794 24.30569596 -12 20 C-11.20256691 18.56569082 -10.41118983 17.12800266 -9.625 15.6875 C-2.08783784 2.08783784 -2.08783784 2.08783784 0 0 Z " fill="#FAFAFA" transform="translate(206,355)"/>
<path d="M0 0 C6.41642088 3.84985253 6.41642088 3.84985253 8 6 C8.36749268 8.40408325 8.36749268 8.40408325 8.35644531 11.28173828 C8.35944641 12.3594046 8.36244751 13.43707092 8.36553955 14.5473938 C8.35319275 15.70995697 8.34084595 16.87252014 8.328125 18.0703125 C8.32625183 19.26228241 8.32437866 20.45425232 8.32244873 21.68234253 C8.31572302 24.20248206 8.30179837 26.72261105 8.28125 29.24267578 C8.25006996 33.11630872 8.24027785 36.98953523 8.234375 40.86328125 C8.22520646 43.30729667 8.21483117 45.75130792 8.203125 48.1953125 C8.19675018 49.94522995 8.19675018 49.94522995 8.19024658 51.73049927 C8.18063904 52.80186127 8.17103149 53.87322327 8.16113281 54.97705078 C8.15430481 55.92508575 8.14747681 56.87312073 8.14044189 57.84988403 C8 60 8 60 7 61 C4.69 61 2.38 61 0 61 C0 40.87 0 20.74 0 0 Z " fill="#949494" transform="translate(234,188)"/>
<path d="M0 0 C1.4800841 0.11362262 2.95910074 0.24122908 4.4375 0.375 C5.26121094 0.44460938 6.08492187 0.51421875 6.93359375 0.5859375 C7.95646484 0.79089844 7.95646484 0.79089844 9 1 C10.4783226 3.95664519 10.06032783 6.74229737 10 10 C10.66 10 11.32 10 12 10 C12.33 7.03 12.66 4.06 13 1 C15.64 0.67 18.28 0.34 21 0 C18.52030718 11.19325028 15.5771684 22.10722901 12 33 C11.34 33 10.68 33 10 33 C9.7326001 32.10692139 9.4652002 31.21384277 9.18969727 30.29370117 C8.19674001 26.97816056 7.20336875 23.66274456 6.2097168 20.34741211 C5.77986328 18.91289153 5.35017452 17.47832158 4.9206543 16.04370117 C4.30300582 13.98082665 3.68476376 11.91813083 3.06640625 9.85546875 C2.69459229 8.61434326 2.32277832 7.37321777 1.93969727 6.09448242 C1.32023673 4.05455978 0.67416732 2.02250195 0 0 Z " fill="#979797" transform="translate(237,369)"/>
<path d="M0 0 C1.7479503 5.24385089 2.19392201 9.47322267 2 15 C-3.52677733 15.19392201 -7.75614911 14.7479503 -13 13 C-13.32722507 9.83312684 -13.28730647 8.40850274 -11.42578125 5.76171875 C-10.72839844 5.07722656 -10.03101563 4.39273438 -9.3125 3.6875 C-8.28576172 2.64142578 -8.28576172 2.64142578 -7.23828125 1.57421875 C-4.59149726 -0.28730647 -3.16687316 -0.32722507 0 0 Z " fill="#020202" transform="translate(142,205)"/>
<path d="M0 0 C3.10202926 1.38630511 5.32411399 3.00094916 7.75 5.375 C8.36359375 5.96023437 8.9771875 6.54546875 9.609375 7.1484375 C11 9 11 9 11 13 C6.09412542 14.60191823 2.22435233 15.1003477 -3 15 C-2.69257097 12.68682039 -2.37892298 10.37446648 -2.0625 8.0625 C-1.88847656 6.77472656 -1.71445312 5.48695313 -1.53515625 4.16015625 C-1 1 -1 1 0 0 Z " fill="#EEEEEE" transform="translate(360,205)"/>
<path d="M0 0 C5.94 0 11.88 0 18 0 C16.45425083 3.09149833 14.88216781 5.87028325 13 8.75 C12.484375 9.54921875 11.96875 10.3484375 11.4375 11.171875 C10.963125 11.77515625 10.48875 12.3784375 10 13 C9.34 13 8.68 13 8 13 C6.55473264 11.26451831 5.1912778 9.46024037 3.875 7.625 C3.15054688 6.62726563 2.42609375 5.62953125 1.6796875 4.6015625 C0 2 0 2 0 0 Z " fill="#C3C3C3" transform="translate(239,151)"/>
<path d="M0 0 C3.03355809 -0.29483328 4.52137878 -0.34520864 7.03637695 1.46875 C7.68050537 2.1390625 8.32463379 2.809375 8.98828125 3.5 C9.69404297 4.221875 10.39980469 4.94375 11.12695312 5.6875 C11.84818359 6.450625 12.56941406 7.21375 13.3125 8 C14.42334961 9.1446875 14.42334961 9.1446875 15.55664062 10.3125 C17.38283156 12.19760032 19.19635759 14.09335569 21 16 C21.66 15.67 22.32 15.34 23 15 C23.42410156 15.49628906 23.84820312 15.99257812 24.28515625 16.50390625 C28.34243284 21.20321342 32.54980194 25.67153988 37 30 C38.32 29.01 39.64 28.02 41 27 C41.66 27.33 42.32 27.66 43 28 C41.35 29.98 39.7 31.96 38 34 C33.99604957 30.67757305 30.21690255 27.26765814 26.5625 23.5625 C23.20702268 20.16167839 19.74459478 16.99851679 16.11328125 13.8984375 C12.67576272 10.81038943 9.49885205 7.46616304 6.296875 4.13671875 C4.23236173 2.21615964 2.58098652 1.07146459 0 0 Z " fill="#8A8A8B" transform="translate(343,181)"/>
<path d="M0 0 C0.7425 0.2475 1.485 0.495 2.25 0.75 C3 3 3 3 3.25 5.75 C1.625 8.125 1.625 8.125 -0.75 9.75 C-3.5 9.5 -3.5 9.5 -5.75 8.75 C-6.5 6.5 -6.5 6.5 -6.75 3.75 C-4.64876805 0.67896869 -3.78845323 -0.34440484 0 0 Z " fill="#DFDFDF" transform="translate(82.75,152.25)"/>
<path d="M0 0 C0.66 0.66 1.32 1.32 2 2 C1.44444444 6.55555556 1.44444444 6.55555556 0 8 C-2.9375 8.1875 -2.9375 8.1875 -6 8 C-6.66 7.34 -7.32 6.68 -8 6 C-7.75 2.9375 -7.75 2.9375 -7 0 C-4.29393021 -1.35303489 -2.8671629 -0.7884698 0 0 Z " fill="#C2C2C2" transform="translate(251,72)"/>
<path d="M0 0 C2.33944736 0.28730055 4.6739143 0.61936779 7 1 C7.38063221 3.3260857 7.71269945 5.66055264 8 8 C7 9 7 9 4.625 9.25 C2 9 2 9 0.1875 7.8125 C-1.38243085 5.41628976 -1.29573841 3.80951486 -1 1 C-0.67 0.67 -0.34 0.34 0 0 Z " fill="#A7A7A7" transform="translate(416,153)"/>
<path d="M0 0 C0.33 0 0.66 0 1 0 C1.07654536 4.51617599 1.10228696 8.59085217 0 13 C-0.66 13 -1.32 13 -2 13 C-2.66 9.04 -3.32 5.08 -4 1 C-2.68 1.33 -1.36 1.66 0 2 C0 1.34 0 0.68 0 0 Z " fill="#4C4C4C" transform="translate(112,250)"/>
<path d="M0 0 C0.66 0.66 1.32 1.32 2 2 C-1.63 5.63 -5.26 9.26 -9 13 C-9.66 12.34 -10.32 11.68 -11 11 C-7.37 7.37 -3.74 3.74 0 0 Z " fill="#A9A9AB" transform="translate(133,198)"/>
<path d="M0 0 C3.28788824 3.11016455 5.83735988 6.01618925 8 10 C6.66666667 9.33333333 5.33333333 8.66666667 4 8 C3.278125 7.67 2.55625 7.34 1.8125 7 C0 6 0 6 -1 4 C-1.99 3.34 -2.98 2.68 -4 2 C-2.68 1.34 -1.36 0.68 0 0 Z " fill="#2E2E2F" transform="translate(284,358)"/>
</svg>
